<svg xmlns="http://www.w3.org/2000/svg" width="56" height="56" fill="none" viewBox="0 0 56 56"><g fill="#343434"><path d="M35.343 21.848c-.304.42-.52.895-.637 1.4h12.026v8.813a9.48 9.48 0 0 1-9.47 9.457H32.48a3 3 0 0 1-.378 0h-2.387v1.4h7.546a10.85 10.85 0 0 0 10.843-10.85v-10.22z"/><path d="M37.274 17.5a15.07 15.07 0 0 0-14.875-7c-.154 0-10.857.113-13.3 9.1a3.81 3.81 0 0 0 1.043 3.64l.448.463c.466.466.73 1.097.735 1.757v13.6a3.88 3.88 0 0 0 3.878 3.865H32.1a3.864 3.864 0 0 0 3.864-3.864V24.15c0-.317.061-.631.182-.924a2.6 2.6 0 0 1 .546-.826q.256-.243.462-.532a3.88 3.88 0 0 0 .119-4.368m-2.57 5.72q-.105.448-.104.91v14.93a2.5 2.5 0 0 1-2.1 2.458 3 3 0 0 1-.378 0H15.245a2.506 2.506 0 0 1-2.506-2.457V25.43a3.84 3.84 0 0 0-1.134-2.73l-.47-.475a2.4 2.4 0 0 1-.783-2.303c2.19-7.952 11.536-8.078 12.047-8.078a13.92 13.92 0 0 1 13.685 6.433 2.5 2.5 0 0 1-.385 3.122q-.21.21-.385.448a3.9 3.9 0 0 0-.61 1.379z"/><path d="M28.28 19.019a.896.896 0 1 0-.001-1.793.896.896 0 0 0 0 1.793M26.927 21.253a.896.896 0 1 0 0-1.792.896.896 0 0 0 0 1.792M30.513 21.253a.896.896 0 1 0 0-1.792.896.896 0 0 0 0 1.792M18.71 34.78a.896.896 0 1 0 0-1.792.896.896 0 0 0 0 1.792M17.366 37.015a.896.896 0 1 0 0-1.792.896.896 0 0 0 0 1.792M20.942 37.015a.896.896 0 1 0 0-1.792.896.896 0 0 0 0 1.792M47.558 34.658h-.833v-9.17h1.757a3.05 3.05 0 0 1 3.052 3.045v2.15a3.976 3.976 0 0 1-3.976 3.975m.546-7.798v6.37a2.59 2.59 0 0 0 2.051-2.548v-2.149a1.673 1.673 0 0 0-1.673-1.673z"/></g></svg>