<svg xmlns="http://www.w3.org/2000/svg" width="56" height="56" fill="none" viewBox="0 0 56 56"><g fill="#343434"><path d="M38.5 43.282H15.12a8.183 8.183 0 0 1-8.168-8.176.7.7 0 0 1 .7-.7h38.304a.7.7 0 0 1 .7.7 8.17 8.17 0 0 1-8.155 8.176M8.4 35.813a6.79 6.79 0 0 0 6.735 6.062H38.5a6.776 6.776 0 0 0 6.762-6.062z"/><path d="M40.075 35.033a4.7 4.7 0 0 0-1.933-3.451c-2.59-1.785-6.832-.784-6.874-.784l-.735.175-.119-.75a4.32 4.32 0 0 0-3.696-3.415c-5.683-.14-6.012 3.325-6.012 3.367v.623h-.623c-5.6.217-5.6 3.94-5.6 4.102h-1.421a5.16 5.16 0 0 1 1.442-3.402 7.34 7.34 0 0 1 4.935-2.037c.398-1.295 1.855-4.2 7.378-4.032a5.76 5.76 0 0 1 4.823 3.885 10.58 10.58 0 0 1 7.294 1.12 6 6 0 0 1 2.534 4.417z"/><path d="M14.001 33.383a3.612 3.612 0 1 1 5.537-3.164h-1.463a2.218 2.218 0 0 0-4.437.016 2.22 2.22 0 0 0 1.063 1.923zm23.625-7.742h-.994a.7.7 0 0 1-.546-.259l-8.631-11.067a.7.7 0 0 1 .105-.973.7.7 0 0 1 .441-.147h18.263a.7.7 0 0 1 .7.763.7.7 0 0 1-.14.357l-8.638 11.067a.77.77 0 0 1-.56.26m-.644-1.442h.301l7.518-9.653h-15.4z"/><path d="M37.135 30.291a.7.7 0 0 1-.7-.7V24.95a.7.7 0 1 1 1.4 0v4.648a.7.7 0 0 1-.7.7zM37.598 18.332a.504.504 0 1 0 0-1.008.504.504 0 0 0 0 1.008M37.512 19.809a.504.504 0 1 0 0-1.008.504.504 0 0 0 0 1.008M39.312 18.864a.504.504 0 1 0 0-1.009.504.504 0 0 0 0 1.008M27.67 29.868a.602.602 0 1 0 0-1.204.602.602 0 0 0 0 1.204M26.747 31.395a.602.602 0 1 0 0-1.204.602.602 0 0 0 0 1.204M29.197 31.395a.602.602 0 1 0 0-1.204.602.602 0 0 0 0 1.204M22.015 18.607l2.562 7.469a.704.704 0 0 1-1.309.518l-3.136-7.196a1.015 1.015 0 0 1 .532-1.337 1 1 0 0 1 1.323.525s.028-.007.028.02m8.274 16.59a3.2 3.2 0 0 1 .175-1.813 3.605 3.605 0 0 1 6.958 1.813L35.987 35a2.2 2.2 0 0 0-1.442-2.401 2.225 2.225 0 0 0-2.87 1.295 1.9 1.9 0 0 0-.098 1.064z"/></g></svg>