<svg xmlns="http://www.w3.org/2000/svg" width="56" height="56" fill="none" viewBox="0 0 56 56"><g fill="#343434"><path d="M43.35 42.82h-8.652a2.177 2.177 0 0 1-2.177-2.177v-.084l1.4-.07v.224a.81.81 0 0 0 .812.812h8.617a.8.8 0 0 0 .79-.658.6.6 0 0 0 0-.154V16.99H33.83v3.5h-1.4v-4.9h13.013v25.123q.03.217 0 .434a2.15 2.15 0 0 1-2.093 1.673"/><path d="M26.41 42.817h-2.485a15.226 15.226 0 0 1-15.238-15.21v-4.2H41.65v4.2a15.22 15.22 0 0 1-7.806 13.3 2.4 2.4 0 0 1-.392.223 15.06 15.06 0 0 1-7.041 1.687M10.052 24.68v2.898a13.84 13.84 0 0 0 7.448 12.32 13.7 13.7 0 0 0 6.404 1.568h2.486c2.246.003 4.46-.535 6.453-1.568l.308-.182a14 14 0 0 0 7.14-12.138v-2.87z"/><path d="m12.9 24.289-1.238-.49a7 7 0 0 1 8.4-4.102 7.9 7.9 0 0 1 5.397-2.513 7 7 0 0 1 5.054 2.597 11.6 11.6 0 0 1 4.2.35 5.65 5.65 0 0 1 3.99 3.668l-1.281.42a4.33 4.33 0 0 0-3.157-2.8 10.3 10.3 0 0 0-3.808-.294 1 1 0 0 1-.798-.294 5.8 5.8 0 0 0-4.2-2.303 6.53 6.53 0 0 0-4.578 2.275.92.92 0 0 1-1.043.224c-4.732-1.624-6.84 3.066-6.937 3.262"/><path d="M20.999 19.976a.7.7 0 0 1-1.183.7L15.7 14.18a.973.973 0 0 1 .259-1.358l.063-.042a.96.96 0 0 1 1.337.224M26.116 20.258a.588.588 0 1 0 0-1.176.588.588 0 0 0 0 1.176M25.22 21.735a.588.588 0 1 0 0-1.176.588.588 0 0 0 0 1.176M27.593 21.735a.588.588 0 1 0 0-1.176.588.588 0 0 0 0 1.176M40.725 21.027a.49.49 0 1 0 0-.98.49.49 0 0 0 0 .98M39.983 22.265a.49.49 0 1 0 0-.98.49.49 0 0 0 0 .98M41.95 22.265a.49.49 0 1 0 0-.98.49.49 0 0 0 0 .98"/></g></svg>