<svg width="32" height="32" viewBox="0 0 32 32" fill="none" xmlns="http://www.w3.org/2000/svg">
<g clip-path="url(#clip0_1569_14019)">
<path d="M26.7752 13.5016H6.16689C5.61585 13.4937 5.08237 13.6953 4.67427 14.0657C4.26617 14.4361 4.01387 14.9475 3.96837 15.4968C3.92286 16.046 4.08755 16.592 4.42913 17.0245C4.77072 17.4569 5.26374 17.7436 5.80856 17.8266C5.92785 17.8351 6.0476 17.8351 6.16689 17.8266H26.7752C27.002 17.8292 27.2276 17.7925 27.4419 17.7182C27.9326 17.5573 28.35 17.227 28.6195 16.7865C28.889 16.346 28.9929 15.824 28.9127 15.3138C28.8326 14.8037 28.5735 14.3387 28.1819 14.0021C27.7902 13.6655 27.2916 13.4792 26.7752 13.4766V13.5016ZM26.7752 17.0349H6.16689C5.83471 16.9979 5.52781 16.8398 5.30492 16.5907C5.08203 16.3416 4.95879 16.0191 4.95879 15.6849C4.95879 15.3507 5.08203 15.0281 5.30492 14.7791C5.52781 14.53 5.83471 14.3719 6.16689 14.3349H26.7752C26.9536 14.3349 27.1302 14.37 27.295 14.4383C27.4598 14.5066 27.6096 14.6066 27.7357 14.7327C27.8618 14.8589 27.9619 15.0086 28.0302 15.1734C28.0984 15.3382 28.1336 15.5148 28.1336 15.6932C28.1336 15.8716 28.0984 16.0482 28.0302 16.213C27.9619 16.3778 27.8618 16.5276 27.7357 16.6537C27.6096 16.7798 27.4598 16.8799 27.295 16.9482C27.1302 17.0164 26.9536 17.0516 26.7752 17.0516V17.0349Z" fill="#343434"/>
<path d="M5.69141 17.0391L5.74141 17.3974L5.80807 17.8307L7.17474 27.0391H26.0664L27.4414 17.7474L27.5497 17.0391H5.69141ZM25.3581 26.2057H7.85807L6.61641 17.8724H26.6164L25.3581 26.2057Z" fill="#343434"/>
<path d="M16.466 2.46094C15.9135 2.46094 15.3735 2.62488 14.9142 2.932C14.4549 3.23913 14.0971 3.67562 13.8861 4.18621C13.675 4.69681 13.6202 5.25855 13.7286 5.8003C13.837 6.34206 14.1037 6.83947 14.495 7.22956C14.8862 7.61965 15.3844 7.88487 15.9265 7.99164C16.4686 8.09842 17.0302 8.04194 17.5401 7.82937C18.0501 7.6168 18.4855 7.25768 18.7913 6.7975C19.097 6.33732 19.2593 5.79676 19.2577 5.24427C19.2555 4.50532 18.9604 3.79739 18.4371 3.27565C17.9138 2.75391 17.205 2.46093 16.466 2.46094ZM16.466 7.21094C16.268 7.2103 16.0713 7.17939 15.8827 7.11927C15.5905 7.02903 15.3232 6.87217 15.1019 6.66104C14.8807 6.4499 14.7115 6.19027 14.6077 5.9026C14.547 5.70267 14.5161 5.49488 14.516 5.28594C14.516 4.89697 14.6314 4.51673 14.8475 4.19332C15.0636 3.8699 15.3707 3.61783 15.7301 3.46897C16.0894 3.32012 16.4849 3.28118 16.8664 3.35706C17.2479 3.43294 17.5983 3.62025 17.8733 3.89529C18.1484 4.17034 18.3357 4.52076 18.4116 4.90226C18.4874 5.28376 18.4485 5.67919 18.2996 6.03855C18.1508 6.39791 17.8987 6.70506 17.5753 6.92116C17.2519 7.13726 16.8717 7.2526 16.4827 7.2526L16.466 7.21094ZM21.1243 13.5026L20.7827 10.6526C20.7258 10.193 20.503 9.76999 20.1562 9.46308C19.8094 9.15617 19.3625 8.98649 18.8993 8.98594H14.491C14.0283 8.98491 13.5814 9.15425 13.2356 9.46165C12.8898 9.76904 12.6692 10.193 12.616 10.6526L12.266 13.5026L12.166 14.3359H21.2243L21.1243 13.5026ZM13.4243 10.7526C13.455 10.4911 13.5805 10.2499 13.7771 10.0748C13.9737 9.89972 14.2277 9.80286 14.491 9.8026H18.8993C19.1626 9.80286 19.4167 9.89972 19.6133 10.0748C19.8099 10.2499 19.9354 10.4911 19.966 10.7526L20.2993 13.5026H13.091L13.4243 10.7526Z" fill="#343434"/>
<path d="M16.0586 9.66406H16.8753V10.5224H16.0586V9.66406ZM16.0586 12.0641H16.8753V13.7641H16.0586V12.0641Z" fill="#343434"/>
</g>
<defs>
<clipPath id="clip0_1569_14019">
<rect width="30" height="30" fill="white" transform="translate(1 1)"/>
</clipPath>
</defs>
</svg>
